<svg width="116" height="34" viewBox="0 0 116 34" fill="currentColor" xmlns="http://www.w3.org/2000/svg">
<mask id="path-1-outside-1_15_108" maskUnits="userSpaceOnUse" x="0.0373535" y="0" width="116" height="34" >
<rect fill="white" x="0.0373535" width="116" height="34"/>
<path d="M27.43 33C24.7084 33 23.083 31.0722 23.083 28.7664C23.083 26.5362 24.7084 24.6462 27.43 24.6462C30.076 24.6462 31.8526 26.5362 31.8526 28.7664C31.8526 31.0722 30.076 33 27.43 33Z"/>
<path d="M34.6167 5.97305H53.6301V11.9832H47.5443V26.574H53.6301V32.622H34.6167V26.574H40.7025V11.9832H34.6167V5.97305Z"/>
<path d="M57.6265 32.622V5.97305H70.5919L78.0763 30.4296V5.97305H84.9559V32.622H71.9905L64.5061 8.16544V32.622H57.6265Z"/>
<path d="M89.2618 32.622V5.97305H96.1414V16.4436L106.272 5.97305H114.55L102.189 18.7494L114.815 32.622H106.121L96.1414 21.3954V32.622H89.2618Z"/>
<path d="M10.7818 7.40593H7.91594V15.5819L9.40504 16.8182L10.1917 16.2L10.5008 16.5934L7.97214 18.7849C6.67971 17.7453 5.49967 17.0148 4.43202 16.6496C4.93775 16.1158 5.19061 15.4414 5.19061 14.6267V7.37784H4.20725L4.23534 6.98449L7.88785 2.40481L7.91594 5.97303H10.7818V7.40593Z"/>
<path d="M21.8163 15.7786C21.8163 17.4363 20.9453 18.7849 19.2034 19.8806C17.939 20.7235 16.3095 21.3416 14.3708 21.7069L14.2865 21.5383C16.1128 20.8359 17.2647 20.274 17.7705 19.9087C18.7538 19.1782 19.2596 18.1387 19.2596 16.7901V8.92313C19.1472 8.3893 18.7819 7.96786 18.1919 7.60261L15.9723 9.26028V16.2L16.7028 17.0148L14.5675 18.8692L12.4603 17.1553L13.2751 16.2V7.40593H11.8984V6.02922H13.3313V4.37154C13.3313 3.10722 12.9941 2.18004 12.3198 1.56193L12.376 1.50573C13.0503 1.7586 13.6403 2.06766 14.118 2.43291L14.5394 2.40481C15.3542 1.47764 16.2533 1 17.2366 1C16.4218 1.70241 16.0285 2.54529 16.0285 3.55675V8.52978L19.962 5.63587C21.1982 6.45066 21.8163 7.54641 21.8163 8.92313V15.7786Z"/>
<path d="M33.0076 10.047C33.0076 11.4799 32.4457 12.8285 31.3499 14.0366C30.4508 15.02 29.2427 15.9191 27.6974 16.7058C27.0512 17.0429 26.1802 17.5206 25.1126 18.1106C23.8482 18.9254 23.202 19.6559 23.202 20.3021L23.2301 20.4426C23.2301 20.9483 23.483 21.3416 23.9887 21.5945C24.3821 21.7912 24.8597 21.9036 25.4216 21.9036C26.1521 21.9036 26.7422 21.735 27.1636 21.4259C27.6974 20.9483 28.0908 20.6954 28.3436 20.6954C28.4841 20.6954 28.5965 20.7516 28.6808 20.8921C28.7089 20.9202 28.7089 20.9764 28.737 21.1169C28.737 21.5102 28.3436 21.8474 27.5288 22.1002C26.9107 22.2969 26.3769 22.4093 25.9274 22.4093H25.534C23.7359 22.4093 22.7806 21.8755 22.6682 20.8078V20.5831C22.6682 19.993 23.0335 19.2344 23.764 18.2511C24.5226 17.2677 24.8878 16.6777 24.8878 16.4248V8.97932C24.8878 8.50169 24.663 8.08024 24.2135 7.6588L23.3144 8.30501L23.0054 7.93976L25.7026 5.57968C26.9107 6.22589 27.5007 7.20926 27.5007 8.58597L31.2937 5.60778C32.4457 6.81591 33.0076 8.30501 33.0076 10.047ZM30.6475 10.8337C30.6475 9.59744 30.198 8.58597 29.327 7.82738L27.4165 9.31648V16.2C28.3155 15.5257 29.046 14.739 29.6361 13.8681C30.3104 12.8285 30.6475 11.817 30.6475 10.8337Z"/>
</mask>
<path d="M1.03735 5.97305V5.77305H0.837354V5.97305H1.03735ZM7.91694 26.574H7.71694V26.774H7.91694V26.574ZM20.7311 26.574H20.9311V26.374H20.7311V26.574ZM20.7311 32.622V32.822H20.9311V32.622H20.7311ZM4.55275 32.422C3.47088 32.422 2.64866 32.138 2.09728 31.6084C1.54725 31.08 1.23735 30.2788 1.23735 29.1822H0.837354C0.837354 30.3536 1.17006 31.2723 1.82017 31.8968C2.46895 32.5201 3.40442 32.822 4.55275 32.822V32.422ZM1.23735 29.1822V5.97305H0.837354V29.1822H1.23735ZM7.91694 26.774H20.7311V26.374H7.91694V26.774ZM20.5311 26.574V32.622H20.9311V26.574H20.5311ZM20.7311 32.422H4.55275V32.822H20.7311V32.422ZM1.03735 6.17305H4.03489V5.77305H1.03735V6.17305ZM7.71694 19.7511V26.574H8.11694V19.7511H7.71694ZM34.6167 5.97305V5.57305H34.2167V5.97305H34.6167ZM53.6301 5.97305H54.0301V5.57305H53.6301V5.97305ZM53.6301 11.9832V12.3832H54.0301V11.9832H53.6301ZM47.5443 11.9832V11.5832H47.1443V11.9832H47.5443ZM47.5443 26.574H47.1443V26.974H47.5443V26.574ZM53.6301 26.574H54.0301V26.174H53.6301V26.574ZM53.6301 32.622V33.022H54.0301V32.622H53.6301ZM34.6167 32.622H34.2167V33.022H34.6167V32.622ZM34.6167 26.574V26.174H34.2167V26.574H34.6167ZM40.7025 26.574V26.974H41.1025V26.574H40.7025ZM40.7025 11.9832H41.1025V11.5832H40.7025V11.9832ZM34.6167 11.9832H34.2167V12.3832H34.6167V11.9832ZM57.6265 32.622H57.2265V33.022H57.6265V32.622ZM57.6265 5.97305V5.57305H57.2265V5.97305H57.6265ZM70.5919 5.97305L70.9744 5.85599L70.8878 5.57305H70.5919V5.97305ZM78.0763 30.4296L77.6938 30.5467L78.4763 30.4296H78.0763ZM78.0763 5.97305V5.57305H77.6763V5.97305H78.0763ZM84.9559 5.97305H85.3559V5.57305H84.9559V5.97305ZM84.9559 32.622V33.022H85.3559V32.622H84.9559ZM71.9905 32.622L71.608 32.7391L71.6946 33.022H71.9905V32.622ZM64.5061 8.16544L64.8886 8.04839L64.1061 8.16544H64.5061ZM64.5061 32.622V33.022H64.9061V32.622H64.5061ZM89.2618 32.622H88.8618V33.022H89.2618V32.622ZM89.2618 5.97305V5.57305H88.8618V5.97305H89.2618ZM96.1414 5.97305H96.5414V5.57305H96.1414V5.97305ZM96.1414 16.4436H95.7414V17.4323L96.4289 16.7218L96.1414 16.4436ZM106.272 5.97305V5.57305H106.102L105.984 5.69491L106.272 5.97305ZM114.55 5.97305L114.837 6.25117L115.494 5.57305H114.55V5.97305ZM102.189 18.7494L101.902 18.4713L101.641 18.7411L101.894 19.0187L102.189 18.7494ZM114.815 32.622V33.022H115.719L115.11 32.3528L114.815 32.622ZM106.121 32.622L105.822 32.8878L105.941 33.022H106.121V32.622ZM96.1414 21.3954L96.4404 21.1297L95.7414 20.3433V21.3954H96.1414ZM96.1414 32.622V33.022H96.5414V32.622H96.1414ZM10.7818 7.40593V7.80593H11.1818V7.40593H10.7818ZM7.91594 7.40593V7.00593H7.51594V7.40593H7.91594ZM7.91594 15.5819H7.51594V15.7697L7.66044 15.8897L7.91594 15.5819ZM9.40504 16.8182L9.14954 17.1259L9.39813 17.3323L9.65217 17.1327L9.40504 16.8182ZM10.1917 16.2L10.5063 15.9529L10.2591 15.6384L9.94461 15.8855L10.1917 16.2ZM10.5008 16.5934L10.7628 16.8957L11.0508 16.646L10.8153 16.3463L10.5008 16.5934ZM7.97214 18.7849L7.72143 19.0966L7.9817 19.3059L8.23411 19.0872L7.97214 18.7849ZM4.43202 16.6496L4.14164 16.3745L3.71341 16.8265L4.30254 17.028L4.43202 16.6496ZM5.19061 7.37784H5.59061V6.97784H5.19061V7.37784ZM4.20725 7.37784L3.80826 7.34934L3.77766 7.77784H4.20725V7.37784ZM4.23534 6.98449L3.92262 6.73508L3.84521 6.83215L3.83636 6.95599L4.23534 6.98449ZM7.88785 2.40481L8.28784 2.40166L8.27895 1.27292L7.57513 2.1554L7.88785 2.40481ZM7.91594 5.97303L7.51596 5.97618L7.51908 6.37303H7.91594V5.97303ZM10.7818 5.97303H11.1818V5.57303H10.7818V5.97303ZM19.2034 19.8806L18.9903 19.5419L18.9815 19.5478L19.2034 19.8806ZM14.3708 21.7069L14.0131 21.8858L14.1481 22.1559L14.4449 22.1L14.3708 21.7069ZM14.2865 21.5383L14.1429 21.165L13.7317 21.3231L13.9288 21.7172L14.2865 21.5383ZM17.7705 19.9087L18.0047 20.233L18.009 20.2298L17.7705 19.9087ZM19.2596 8.92313H19.6596V8.88148L19.651 8.84072L19.2596 8.92313ZM18.1919 7.60261L18.4024 7.2625L18.1708 7.11911L17.9526 7.28212L18.1919 7.60261ZM15.9723 9.26028L15.733 8.9398L15.5723 9.05978V9.26028H15.9723ZM15.9723 16.2H15.5723V16.3531L15.6745 16.4671L15.9723 16.2ZM16.7028 17.0148L16.9651 17.3168L17.2719 17.0504L17.0006 16.7478L16.7028 17.0148ZM14.5675 18.8692L14.3151 19.1795L14.5759 19.3916L14.8298 19.1712L14.5675 18.8692ZM12.4603 17.1553L12.156 16.8957L11.8902 17.2073L12.2079 17.4656L12.4603 17.1553ZM13.2751 16.2L13.5794 16.4596L13.6751 16.3475V16.2H13.2751ZM13.2751 7.40593H13.6751V7.00593H13.2751V7.40593ZM11.8984 7.40593H11.4984V7.80593H11.8984V7.40593ZM11.8984 6.02922V5.62922H11.4984V6.02922H11.8984ZM13.3313 6.02922V6.42922H13.7313V6.02922H13.3313ZM12.3198 1.56193L12.037 1.27909L11.7416 1.57449L12.0495 1.85679L12.3198 1.56193ZM12.376 1.50573L12.5164 1.1312L12.2753 1.04076L12.0931 1.22289L12.376 1.50573ZM14.118 2.43291L13.875 2.75065L13.9945 2.84203L14.1446 2.83202L14.118 2.43291ZM14.5394 2.40481L14.566 2.80392L14.7308 2.79294L14.8399 2.66886L14.5394 2.40481ZM17.2366 1L17.4978 1.30296L18.3133 0.6L17.2366 0.6V1ZM16.0285 8.52978H15.6285V9.32066L16.2655 8.85198L16.0285 8.52978ZM19.962 5.63587L20.1821 5.30189L19.9494 5.14853L19.7249 5.31368L19.962 5.63587ZM31.3499 14.0366L31.6451 14.3065L31.6462 14.3054L31.3499 14.0366ZM27.6974 16.7058L27.5159 16.3493L27.5124 16.3511L27.6974 16.7058ZM25.1126 18.1106L24.9191 17.7605L24.9073 17.767L24.8959 17.7744L25.1126 18.1106ZM23.202 20.3021H22.802V20.3417L22.8098 20.3805L23.202 20.3021ZM23.2301 20.4426H23.6301V20.403L23.6224 20.3641L23.2301 20.4426ZM23.9887 21.5945L23.8098 21.9523L23.8098 21.9523L23.9887 21.5945ZM27.1636 21.4259L27.4001 21.7485L27.4158 21.737L27.4303 21.724L27.1636 21.4259ZM28.6808 20.8921L28.3378 21.0979L28.3631 21.1401L28.3979 21.175L28.6808 20.8921ZM28.737 21.1169H29.137V21.0773L29.1292 21.0384L28.737 21.1169ZM27.5288 22.1002L27.4103 21.7182L27.4076 21.7191L27.5288 22.1002ZM22.6682 20.8078H22.2682V20.8288L22.2704 20.8497L22.6682 20.8078ZM23.764 18.2511L23.4472 18.0067L23.4429 18.0125L23.764 18.2511ZM24.2135 7.6588L24.4871 7.36699L24.2471 7.14203L23.98 7.33399L24.2135 7.6588ZM23.3144 8.30501L23.0091 8.56339L23.2478 8.84551L23.5479 8.62982L23.3144 8.30501ZM23.0054 7.93976L22.742 7.63873L22.4459 7.8978L22.7 8.19814L23.0054 7.93976ZM25.7026 5.57968L25.8913 5.22697L25.6474 5.09651L25.4392 5.27865L25.7026 5.57968ZM27.5007 8.58597H27.1007V9.40862L27.7478 8.90058L27.5007 8.58597ZM31.2937 5.60778L31.5832 5.33175L31.3325 5.06878L31.0467 5.29317L31.2937 5.60778ZM29.327 7.82738L29.5897 7.52574L29.3411 7.30923L29.0811 7.51189L29.327 7.82738ZM27.4165 9.31648L27.1706 9.00098L27.0165 9.12109V9.31648H27.4165ZM27.4165 16.2H27.0165V17L27.6565 16.52L27.4165 16.2ZM29.6361 13.8681L29.9673 14.0924L29.9716 14.0857L29.6361 13.8681ZM27.43 32.6C26.1682 32.6 25.1881 32.1556 24.5231 31.4695C23.8554 30.7806 23.483 29.8251 23.483 28.7664H22.683C22.683 30.0135 23.1233 31.1748 23.9487 32.0263C24.7767 32.8806 25.9701 33.4 27.43 33.4V32.6ZM23.483 28.7664C23.483 27.7493 23.8528 26.823 24.5196 26.1519C25.1843 25.4831 26.1657 25.0462 27.43 25.0462V24.2462C25.9727 24.2462 24.7806 24.7544 23.9521 25.588C23.1259 26.4195 22.683 27.5533 22.683 28.7664H23.483ZM27.43 25.0462C29.8668 25.0462 31.4526 26.7687 31.4526 28.7664H32.2526C32.2526 26.3037 30.2851 24.2462 27.43 24.2462V25.0462ZM31.4526 28.7664C31.4526 30.849 29.8574 32.6 27.43 32.6V33.4C30.2946 33.4 32.2526 31.2954 32.2526 28.7664H31.4526ZM34.6167 6.37305H53.6301V5.57305H34.6167V6.37305ZM53.2301 5.97305V11.9832H54.0301V5.97305H53.2301ZM53.6301 11.5832H47.5443V12.3832H53.6301V11.5832ZM47.1443 11.9832V26.574H47.9443V11.9832H47.1443ZM47.5443 26.974H53.6301V26.174H47.5443V26.974ZM53.2301 26.574V32.622H54.0301V26.574H53.2301ZM53.6301 32.222H34.6167V33.022H53.6301V32.222ZM35.0167 32.622V26.574H34.2167V32.622H35.0167ZM34.6167 26.974H40.7025V26.174H34.6167V26.974ZM41.1025 26.574V11.9832H40.3025V26.574H41.1025ZM40.7025 11.5832H34.6167V12.3832H40.7025V11.5832ZM35.0167 11.9832V5.97305H34.2167V11.9832H35.0167ZM58.0265 32.622V5.97305H57.2265V32.622H58.0265ZM57.6265 6.37305H70.5919V5.57305H57.6265V6.37305ZM70.2094 6.0901L77.6938 30.5467L78.4588 30.3126L70.9744 5.85599L70.2094 6.0901ZM78.4763 30.4296V5.97305H77.6763V30.4296H78.4763ZM78.0763 6.37305H84.9559V5.57305H78.0763V6.37305ZM84.5559 5.97305V32.622H85.3559V5.97305H84.5559ZM84.9559 32.222H71.9905V33.022H84.9559V32.222ZM72.373 32.505L64.8886 8.04839L64.1236 8.2825L71.608 32.7391L72.373 32.505ZM64.1061 8.16544V32.622H64.9061V8.16544H64.1061ZM64.5061 32.222H57.6265V33.022H64.5061V32.222ZM89.6618 32.622V5.97305H88.8618V32.622H89.6618ZM89.2618 6.37305H96.1414V5.57305H89.2618V6.37305ZM95.7414 5.97305V16.4436H96.5414V5.97305H95.7414ZM96.4289 16.7218L106.559 6.25118L105.984 5.69491L95.8539 16.1655L96.4289 16.7218ZM106.272 6.37305H114.55V5.57305H106.272V6.37305ZM114.262 5.69492L101.902 18.4713L102.477 19.0276L114.837 6.25117L114.262 5.69492ZM101.894 19.0187L114.519 32.8912L115.11 32.3528L102.485 18.4802L101.894 19.0187ZM114.815 32.222H106.121V33.022H114.815V32.222ZM106.42 32.3563L96.4404 21.1297L95.8424 21.6612L105.822 32.8878L106.42 32.3563ZM95.7414 21.3954V32.622H96.5414V21.3954H95.7414ZM96.1414 32.222H89.2618V33.022H96.1414V32.222ZM10.7818 7.00593H7.91594V7.80593H10.7818V7.00593ZM7.51594 7.40593V15.5819H8.31594V7.40593H7.51594ZM7.66044 15.8897L9.14954 17.1259L9.66055 16.5104L8.17145 15.2742L7.66044 15.8897ZM9.65217 17.1327L10.4389 16.5146L9.94461 15.8855L9.15791 16.5036L9.65217 17.1327ZM9.87721 16.4472L10.1863 16.8405L10.8153 16.3463L10.5063 15.9529L9.87721 16.4472ZM10.2388 16.2911L7.71017 18.4826L8.23411 19.0872L10.7628 16.8957L10.2388 16.2911ZM8.22284 18.4732C6.91411 17.4205 5.69213 16.6579 4.56149 16.2711L4.30254 17.028C5.30722 17.3718 6.44532 18.0701 7.72143 19.0966L8.22284 18.4732ZM4.7224 16.9247C5.30637 16.3083 5.59061 15.5318 5.59061 14.6267H4.79061C4.79061 15.3511 4.56912 15.9232 4.14164 16.3745L4.7224 16.9247ZM5.59061 14.6267V7.37784H4.79061V14.6267H5.59061ZM5.19061 6.97784H4.20725V7.77784H5.19061V6.97784ZM4.60623 7.40634L4.63433 7.01299L3.83636 6.95599L3.80826 7.34934L4.60623 7.40634ZM4.54806 7.2339L8.20057 2.65422L7.57513 2.1554L3.92262 6.73508L4.54806 7.2339ZM7.48786 2.40796L7.51596 5.97618L8.31593 5.96988L8.28784 2.40166L7.48786 2.40796ZM7.91594 6.37303H10.7818V5.57303H7.91594V6.37303ZM10.3818 5.97303V7.40593H11.1818V5.97303H10.3818ZM21.4163 15.7786C21.4163 17.262 20.6509 18.4975 18.9904 19.5421L19.4164 20.2192C21.2398 19.0722 22.2163 17.6105 22.2163 15.7786H21.4163ZM18.9815 19.5478C17.7727 20.3537 16.1971 20.9558 14.2968 21.3138L14.4449 22.1C16.4219 21.7275 18.1054 21.0934 19.4253 20.2135L18.9815 19.5478ZM14.7286 21.528L14.6443 21.3594L13.9288 21.7172L14.0131 21.8858L14.7286 21.528ZM14.4301 21.9117C16.2553 21.2097 17.4521 20.6321 18.0047 20.233L17.5363 19.5845C17.0773 19.9159 15.9703 20.4622 14.1429 21.165L14.4301 21.9117ZM18.009 20.2298C19.1027 19.4174 19.6596 18.2539 19.6596 16.7901H18.8596C18.8596 18.0235 18.405 18.9391 17.5319 19.5876L18.009 20.2298ZM19.6596 16.7901V8.92313H18.8596V16.7901H19.6596ZM19.651 8.84072C19.5078 8.16043 19.0445 7.65994 18.4024 7.2625L17.9814 7.94271C18.5194 8.27578 18.7866 8.61817 18.8681 9.00553L19.651 8.84072ZM17.9526 7.28212L15.733 8.9398L16.2117 9.58077L18.4313 7.92309L17.9526 7.28212ZM15.5723 9.26028V16.2H16.3723V9.26028H15.5723ZM15.6745 16.4671L16.405 17.2819L17.0006 16.7478L16.2701 15.933L15.6745 16.4671ZM16.4405 16.7128L14.3052 18.5672L14.8298 19.1712L16.9651 17.3168L16.4405 16.7128ZM14.8199 18.5589L12.7127 16.845L12.2079 17.4656L14.3151 19.1795L14.8199 18.5589ZM12.7646 17.4149L13.5794 16.4596L12.9707 15.9405L12.156 16.8957L12.7646 17.4149ZM13.6751 16.2V7.40593H12.8751V16.2H13.6751ZM13.2751 7.00593H11.8984V7.80593H13.2751V7.00593ZM12.2984 7.40593V6.02922H11.4984V7.40593H12.2984ZM11.8984 6.42922H13.3313V5.62922H11.8984V6.42922ZM13.7313 6.02922V4.37154H12.9313V6.02922H13.7313ZM13.7313 4.37154C13.7313 3.03779 13.374 1.98565 12.5901 1.26706L12.0495 1.85679C12.6142 2.37443 12.9313 3.17664 12.9313 4.37154H13.7313ZM12.6027 1.84476L12.6588 1.78857L12.0931 1.22289L12.037 1.27909L12.6027 1.84476ZM12.2355 1.88026C12.8829 2.12303 13.4359 2.4149 13.875 2.75065L14.3609 2.11516C13.8447 1.72041 13.2177 1.39417 12.5164 1.1312L12.2355 1.88026ZM14.1446 2.83202L14.566 2.80392L14.5128 2.0057L14.0914 2.03379L14.1446 2.83202ZM14.8399 2.66886C15.6023 1.80132 16.3997 1.4 17.2366 1.4V0.6C16.1068 0.6 15.1061 1.15395 14.2389 2.14076L14.8399 2.66886ZM16.9755 0.697036C16.0773 1.47133 15.6285 2.42279 15.6285 3.55675H16.4285C16.4285 2.6678 16.7664 1.93348 17.4978 1.30296L16.9755 0.697036ZM15.6285 3.55675V8.52978H16.4285V3.55675H15.6285ZM16.2655 8.85198L20.199 5.95807L19.7249 5.31368L15.7915 8.20759L16.2655 8.85198ZM19.7418 5.96986C20.8759 6.71728 21.4163 7.69255 21.4163 8.92313H22.2163C22.2163 7.40028 21.5205 6.18405 20.1821 5.30189L19.7418 5.96986ZM21.4163 8.92313V15.7786H22.2163V8.92313H21.4163ZM32.6076 10.047C32.6076 11.3663 32.0929 12.6221 31.0536 13.7679L31.6462 14.3054C32.7985 13.0349 33.4076 11.5934 33.4076 10.047H32.6076ZM31.0547 13.7667C30.1941 14.7081 29.0272 15.58 27.5159 16.3493L27.8789 17.0622C29.4582 16.2582 30.7076 15.3319 31.6451 14.3065L31.0547 13.7667ZM27.5124 16.3511C26.8612 16.6909 25.9861 17.1708 24.9191 17.7605L25.306 18.4607C26.3743 17.8703 27.2412 17.395 27.8824 17.0604L27.5124 16.3511ZM24.8959 17.7744C24.248 18.1919 23.7362 18.6016 23.3821 19.0062C23.0307 19.4078 22.802 19.8426 22.802 20.3021H23.602C23.602 20.1154 23.6964 19.8618 23.9842 19.533C24.2694 19.207 24.7128 18.8441 25.3293 18.4468L24.8959 17.7744ZM22.8098 20.3805L22.8379 20.521L23.6224 20.3641L23.5943 20.2236L22.8098 20.3805ZM22.8301 20.4426C22.8301 21.1158 23.1835 21.6391 23.8098 21.9523L24.1676 21.2367C23.7825 21.0442 23.6301 20.7808 23.6301 20.4426H22.8301ZM23.8098 21.9523C24.2657 22.1802 24.8059 22.3036 25.4216 22.3036V21.5036C24.9135 21.5036 24.4984 21.4022 24.1676 21.2367L23.8098 21.9523ZM25.4216 22.3036C26.2096 22.3036 26.8907 22.1221 27.4001 21.7485L26.927 21.1034C26.5936 21.3479 26.0947 21.5036 25.4216 21.5036V22.3036ZM27.4303 21.724C27.6895 21.4922 27.902 21.3264 28.071 21.2208C28.155 21.1682 28.2214 21.135 28.2716 21.1156C28.3232 21.0957 28.3448 21.0954 28.3436 21.0954V20.2954C28.1006 20.2954 27.8589 20.4099 27.647 20.5424C27.4227 20.6826 27.1716 20.8821 26.8969 21.1278L27.4303 21.724ZM28.3436 21.0954C28.3521 21.0954 28.3543 21.0963 28.3518 21.0957C28.3489 21.095 28.3435 21.0933 28.3372 21.0897C28.3309 21.0862 28.3275 21.083 28.327 21.0824C28.3268 21.0822 28.3308 21.0863 28.3378 21.0979L29.0238 20.6863C28.9527 20.5678 28.8566 20.464 28.7294 20.3925C28.6022 20.3209 28.4685 20.2954 28.3436 20.2954V21.0954ZM28.3979 21.175C28.3773 21.1543 28.3611 21.1328 28.3486 21.1123C28.3364 21.0924 28.3288 21.075 28.3241 21.0629C28.3196 21.0511 28.3173 21.0426 28.3165 21.0397C28.3158 21.0368 28.3158 21.0366 28.3167 21.0408C28.3175 21.0449 28.3186 21.051 28.3203 21.0605C28.322 21.0705 28.3237 21.0802 28.3261 21.0944C28.3307 21.1212 28.3367 21.1551 28.3447 21.1953L29.1292 21.0384C29.1232 21.0084 29.1186 20.9826 29.1145 20.9585C29.1108 20.9373 29.106 20.9083 29.1011 20.8839C29.0949 20.853 29.0723 20.718 28.9636 20.6093L28.3979 21.175ZM28.337 21.1169C28.337 21.1615 28.3206 21.24 28.184 21.3526C28.0404 21.471 27.7937 21.5992 27.4103 21.7182L27.6474 22.4823C28.0788 22.3484 28.4361 22.1816 28.6929 21.9699C28.9567 21.7523 29.137 21.4656 29.137 21.1169H28.337ZM27.4076 21.7191C26.8049 21.9108 26.3166 22.0093 25.9274 22.0093V22.8093C26.4372 22.8093 27.0166 22.683 27.6501 22.4814L27.4076 21.7191ZM25.9274 22.0093H25.534V22.8093H25.9274V22.0093ZM25.534 22.0093C24.6642 22.0093 24.0553 21.8784 23.6641 21.6598C23.2973 21.4548 23.1083 21.1675 23.066 20.7659L22.2704 20.8497C22.3405 21.5158 22.6853 22.0292 23.2738 22.3581C23.8378 22.6733 24.6057 22.8093 25.534 22.8093V22.0093ZM23.0682 20.8078V20.5831H22.2682V20.8078H23.0682ZM23.0682 20.5831C23.0682 20.1347 23.3574 19.4691 24.0851 18.4896L23.4429 18.0125C22.7095 18.9998 22.2682 19.8513 22.2682 20.5831H23.0682ZM24.0807 18.4954C24.4629 17.9999 24.7538 17.5936 24.9509 17.2739C25.0493 17.1142 25.1293 16.9681 25.1858 16.8378C25.2387 16.7158 25.2878 16.5709 25.2878 16.4248H24.4878C24.4878 16.4052 24.4912 16.4288 24.4519 16.5193C24.4163 16.6015 24.3576 16.7118 24.2698 16.8541C24.0946 17.1385 23.8236 17.5189 23.4472 18.0067L24.0807 18.4954ZM25.2878 16.4248V8.97932H24.4878V16.4248H25.2878ZM25.2878 8.97932C25.2878 8.3549 24.9864 7.83508 24.4871 7.36699L23.9399 7.95062C24.3397 8.32541 24.4878 8.64847 24.4878 8.97932H25.2878ZM23.98 7.33399L23.081 7.98021L23.5479 8.62982L24.4469 7.98361L23.98 7.33399ZM23.6198 8.04664L23.3107 7.68138L22.7 8.19814L23.0091 8.56339L23.6198 8.04664ZM23.2688 8.24079L25.966 5.88071L25.4392 5.27865L22.742 7.63873L23.2688 8.24079ZM25.5139 5.9324C26.0662 6.22781 26.4567 6.58865 26.7115 7.01433C26.9663 7.44005 27.1007 7.95611 27.1007 8.58597H27.9007C27.9007 7.83913 27.7401 7.17514 27.3979 6.60345C27.0557 6.03171 26.5471 5.57776 25.8913 5.22697L25.5139 5.9324ZM27.7478 8.90058L31.5408 5.92239L31.0467 5.29317L27.2537 8.27137L27.7478 8.90058ZM31.0042 5.88381C32.0797 7.01173 32.6076 8.39947 32.6076 10.047H33.4076C33.4076 8.21056 32.8117 6.6201 31.5832 5.33175L31.0042 5.88381ZM31.0475 10.8337C31.0475 9.48899 30.5532 8.36492 29.5897 7.52574L29.0643 8.12901C29.8428 8.80703 30.2475 9.70589 30.2475 10.8337H31.0475ZM29.0811 7.51189L27.1706 9.00098L27.6624 9.63197L29.5729 8.14287L29.0811 7.51189ZM27.0165 9.31648V16.2H27.8165V9.31648H27.0165ZM27.6565 16.52C28.5926 15.8179 29.3535 14.9984 29.9672 14.0924L29.3049 13.6437C28.7386 14.4797 28.0385 15.2335 27.1765 15.88L27.6565 16.52ZM29.9716 14.0857C30.6771 12.9982 31.0475 11.9121 31.0475 10.8337H30.2475C30.2475 11.7219 29.9436 12.6588 29.3005 13.6504L29.9716 14.0857Z"  mask="url(#path-1-outside-1_15_108)"/>
</svg>
